<svg width="472" height="338" viewBox="0 0 472 338" fill="none" xmlns="http://www.w3.org/2000/svg">
<g clip-path="url(#clip0)">
<path d="M398.523 234.726C398.035 234.172 397.67 233.516 397.456 232.803C397.241 232.09 397.182 231.338 397.283 230.599C397.383 229.86 397.64 229.152 398.036 228.526C398.432 227.9 398.958 227.37 399.575 226.975L395.625 209.296L404.243 212.598L406.674 228.88C407.254 229.987 407.417 231.273 407.134 232.495C406.85 233.717 406.138 234.79 405.134 235.51C404.129 236.231 402.901 236.549 401.683 236.404C400.465 236.26 399.341 235.662 398.523 234.726Z" fill="#FFB8B8"/>
<path d="M397.927 220.695L390.351 205.693L391.375 167.918L391.862 168.969C392.429 170.193 405.723 199.015 404.775 208.664L406.294 217.481L397.927 220.695Z" fill="#3F3D56"/>
<path d="M392.987 331.561H399.063L401.952 307.562L392.986 307.563L392.987 331.561Z" fill="#FFB8B8"/>
<path d="M391.438 329.53L403.402 329.53H403.402C405.424 329.53 407.364 330.353 408.793 331.817C410.223 333.281 411.026 335.267 411.026 337.338V337.592L391.438 337.593L391.438 329.53Z" fill="#2F2E41"/>
<path d="M332.962 326.833L338.815 328.499L347.878 306.171L339.239 303.711L332.962 326.833Z" fill="#FFB8B8"/>
<path d="M332 324.451L343.527 327.733L343.528 327.733C345.476 328.288 347.129 329.613 348.123 331.416C349.118 333.219 349.372 335.353 348.83 337.348L348.764 337.593L329.891 332.219L332 324.451Z" fill="#2F2E41"/>
<path d="M386.93 322.205L374.67 232.298L348.189 321.697L327.367 314.415L357.21 194.707L357.406 194.693L388.668 192.466L411.255 314.939L386.93 322.205Z" fill="#2F2E41"/>
<path d="M383.688 152.341C383.688 152.341 372.291 146.251 356.929 148.788C356.929 148.788 348.753 168.991 356.929 177.033L359.159 197.255C359.159 197.255 379.971 209.943 386.909 195.225L385.918 178.477C385.918 178.477 390.873 170.445 386.909 164.565C384.532 160.973 383.399 156.67 383.688 152.341Z" fill="#FC6027"/>
<path d="M385.132 244.322L387.132 201.81L381.471 151.236L381.73 151.196C389.157 150.049 391.539 163.153 391.637 163.711L404.563 238.562L385.132 244.322Z" fill="#3F3D56"/>
<path d="M359.93 244.765L337.078 242.165L337.084 241.909C337.165 238.444 339.132 156.98 344.643 151.21C350.187 145.406 360.648 147.917 361.091 148.028L361.312 148.082L359.431 182.553L359.93 244.765Z" fill="#3F3D56"/>
<path d="M364.139 196.076C363.446 196.308 362.713 196.383 361.99 196.294C361.266 196.204 360.571 195.954 359.952 195.56C359.334 195.166 358.807 194.637 358.41 194.012C358.012 193.387 357.753 192.68 357.651 191.942L340.274 188.455L346.722 181.731L362.235 186.073C363.458 185.98 364.672 186.35 365.647 187.112C366.622 187.874 367.29 188.976 367.525 190.209C367.759 191.442 367.544 192.72 366.92 193.801C366.296 194.883 365.306 195.692 364.139 196.076Z" fill="#FFB8B8"/>
<path d="M354.866 191.995L349.203 190.748C340.844 193.323 326.254 184.258 320.357 180.232C319.247 179.475 318.887 177.974 319.287 175.772C319.877 172.692 321.535 169.934 323.955 168.007L344.723 151.142L349.966 150.244L351.523 159.281L338.29 173.837L357.769 184.695L354.866 191.995Z" fill="#3F3D56"/>
<path d="M352.626 141.138V129.42C352.626 124.463 354.549 119.708 357.972 116.203C361.395 112.697 366.037 110.728 370.878 110.728C375.718 110.728 380.361 112.697 383.784 116.203C387.207 119.708 389.129 124.463 389.129 129.42V141.138C389.129 141.804 388.87 142.442 388.411 142.913C387.951 143.384 387.328 143.649 386.678 143.649H355.078C354.428 143.649 353.805 143.384 353.345 142.913C352.885 142.442 352.627 141.804 352.626 141.138Z" fill="#2F2E41"/>
<path d="M370.144 143.534C377.535 143.534 383.526 137.398 383.526 129.829C383.526 122.26 377.535 116.124 370.144 116.124C362.754 116.124 356.763 122.26 356.763 129.829C356.763 137.398 362.754 143.534 370.144 143.534Z" fill="#FFB8B8"/>
<path d="M300.199 22.5244H0V213.98H300.199V22.5244Z" fill="#E6E6E6"/>
<path d="M75.1124 59.4077H20.1309V96.0095H75.1124V59.4077Z" fill="white"/>
<path d="M143.431 59.4077H88.4496V96.0095H143.431V59.4077Z" fill="white"/>
<path d="M211.75 59.4077H156.768V96.0095H211.75V59.4077Z" fill="white"/>
<path d="M280.069 59.4077H225.087V96.0095H280.069V59.4077Z" fill="white"/>
<path d="M75.1124 111.213H20.1309V147.815H75.1124V111.213Z" fill="white"/>
<path d="M143.431 111.213H88.4496V147.815H143.431V111.213Z" fill="white"/>
<path d="M211.75 111.213H156.768V147.815H211.75V111.213Z" fill="white"/>
<path d="M280.069 111.213H225.087V147.815H280.069V111.213Z" fill="white"/>
<path d="M75.1124 163.019H20.1309V199.621H75.1124V163.019Z" fill="white"/>
<path d="M143.431 163.019H88.4496V199.621H143.431V163.019Z" fill="white"/>
<path d="M211.75 163.019H156.768V199.621H211.75V163.019Z" fill="white"/>
<path d="M280.069 163.019H225.087V199.621H280.069V163.019Z" fill="white"/>
<path d="M78.6237 45.0484C83.1785 45.0484 86.8709 41.2668 86.8709 36.6018C86.8709 31.9369 83.1785 28.1553 78.6237 28.1553C74.0689 28.1553 70.3765 31.9369 70.3765 36.6018C70.3765 41.2668 74.0689 45.0484 78.6237 45.0484Z" fill="white"/>
<path d="M214.978 45.0484C219.533 45.0484 223.225 41.2667 223.225 36.6018C223.225 31.9369 219.533 28.1553 214.978 28.1553C210.423 28.1553 206.731 31.9369 206.731 36.6018C206.731 41.2667 210.423 45.0484 214.978 45.0484Z" fill="white"/>
<path d="M81.9226 0H75.3248V38.8543H81.9226V0Z" fill="#E6E6E6"/>
<path d="M218.277 0H211.679V38.8543H218.277V0Z" fill="#E6E6E6"/>
<path d="M265.011 77.7087C265.008 80.7666 263.928 83.7208 261.969 86.0284C260.01 88.336 257.304 89.8421 254.347 90.2698C251.391 90.6975 248.383 90.0182 245.876 88.3567C243.37 86.6952 241.533 84.1631 240.703 81.2256C239.873 78.2881 240.106 75.1426 241.359 72.367C242.613 69.5915 244.802 67.3723 247.524 66.1173C250.247 64.8622 253.321 64.6557 256.18 65.5355C259.04 66.4153 261.493 68.3224 263.09 70.9065C264.347 72.9414 265.013 75.3005 265.011 77.7087Z" fill="#FE4400"/>
<path d="M263.09 70.9064L250.851 83.4388C250.082 82.2192 245.796 76.551 245.796 76.551C246.345 75.9825 246.931 75.4526 247.55 74.9651L251.104 79.8178L261.657 69.0103C262.192 69.5945 262.672 70.2294 263.09 70.9064Z" fill="white"/>
<path d="M128.374 129.514C128.371 132.572 127.291 135.526 125.331 137.834C123.372 140.142 120.666 141.648 117.71 142.075C114.753 142.503 111.745 141.824 109.239 140.162C106.732 138.501 104.895 135.969 104.065 133.031C103.236 130.094 103.469 126.948 104.722 124.173C105.975 121.397 108.164 119.178 110.887 117.923C113.61 116.668 116.683 116.461 119.543 117.341C122.402 118.221 124.856 120.128 126.452 122.712C127.709 124.747 128.376 127.106 128.374 129.514Z" fill="#FE4400"/>
<path d="M126.452 122.712L114.213 135.245C113.444 134.025 109.159 128.357 109.159 128.357C109.708 127.788 110.294 127.258 110.913 126.771L114.466 131.623L125.019 120.816C125.554 121.4 126.034 122.035 126.452 122.712Z" fill="white"/>
<path d="M60.0549 129.514C60.0521 132.572 58.9719 135.527 57.0128 137.834C55.0536 140.142 52.3472 141.648 49.3908 142.076C46.4343 142.503 43.4265 141.824 40.9199 140.163C38.4133 138.501 36.5763 135.969 35.7465 133.031C34.9167 130.094 35.1498 126.948 36.403 124.173C37.6562 121.397 39.8452 119.178 42.568 117.923C45.2907 116.668 48.3642 116.461 51.2238 117.341C54.0833 118.221 56.5368 120.128 58.1334 122.712C59.3907 124.747 60.0572 127.106 60.0549 129.514Z" fill="#FE4400"/>
<path d="M58.1333 122.712L45.8944 135.245C45.1252 134.025 40.8397 128.357 40.8397 128.357C41.3889 127.788 41.975 127.258 42.5939 126.771L46.1476 131.623L56.7002 120.816C57.2353 121.4 57.7152 122.035 58.1333 122.712Z" fill="white"/>
<path d="M471.455 338H263.876C263.732 338 263.593 337.941 263.491 337.836C263.389 337.732 263.331 337.59 263.331 337.442C263.331 337.294 263.389 337.152 263.491 337.047C263.593 336.943 263.732 336.884 263.876 336.884H471.455C471.6 336.884 471.738 336.943 471.84 337.047C471.943 337.152 472 337.294 472 337.442C472 337.59 471.943 337.732 471.84 337.836C471.738 337.941 471.6 338 471.455 338Z" fill="#3F3D56"/>
</g>
<defs>
<clipPath id="clip0">
<rect width="472" height="338" fill="white"/>
</clipPath>
</defs>
</svg>
