<svg width="434" height="410" viewBox="0 0 434 410" fill="none" xmlns="http://www.w3.org/2000/svg">
<g clip-path="url(#clip0)">
<path d="M315.086 232.659V345.918L333.97 376.793L335.407 379.141H409.916L411.422 232.659H315.086Z" fill="#E6E6E6"/>
<path opacity="0.1" d="M315.086 232.659V345.918L333.97 376.793L335.128 232.659H315.086Z" fill="black"/>
<path d="M135.21 229.638V342.898L116.326 373.773L114.889 376.121H40.38L38.8745 229.638H135.21Z" fill="#E6E6E6"/>
<path opacity="0.1" d="M135.21 229.638V342.898L116.326 373.773L115.168 229.638H135.21Z" fill="black"/>
<path d="M434 227.373V234.168H29.0905V224.352L66.7213 204.721H400.885L434 227.373Z" fill="#E6E6E6"/>
<path opacity="0.1" d="M434 227.373V234.168H29.0905V224.352L434 227.373Z" fill="black"/>
<path d="M87.0425 261.351H68.9792L61.4531 256.065H95.3211L87.0425 261.351Z" fill="#3F3D56"/>
<path d="M87.0425 283.248H68.9792L61.4531 277.962H95.3211L87.0425 283.248Z" fill="#3F3D56"/>
<path d="M87.0425 314.206H68.9792L61.4531 308.92H95.3211L87.0425 314.206Z" fill="#3F3D56"/>
<path d="M87.0425 345.163H68.9792L61.4531 339.878H95.3211L87.0425 345.163Z" fill="#3F3D56"/>
<path d="M363.254 264.371H381.317L388.843 259.085H354.975L363.254 264.371Z" fill="#3F3D56"/>
<path d="M363.254 286.268H381.317L388.843 280.982H354.975L363.254 286.268Z" fill="#3F3D56"/>
<path d="M363.254 317.226H381.317L388.843 311.941H354.975L363.254 317.226Z" fill="#3F3D56"/>
<path d="M363.254 348.183H381.317L388.843 342.898H354.975L363.254 348.183Z" fill="#3F3D56"/>
<path d="M375.554 73.747H223.49C222.734 73.7469 221.987 73.896 221.289 74.186C220.591 74.4759 219.957 74.9009 219.423 75.4366C218.889 75.9724 218.465 76.6085 218.176 77.3085C217.887 78.0086 217.739 78.7589 217.739 79.5166V182.284C217.739 183.042 217.887 183.792 218.176 184.492C218.465 185.192 218.889 185.828 219.423 186.364C219.957 186.9 220.591 187.325 221.289 187.615C221.987 187.905 222.734 188.054 223.49 188.054H281.215L279.052 201.906C279.052 201.906 266.693 208.493 275.383 208.687C284.073 208.881 325.013 208.687 325.013 208.687C325.013 208.687 332.93 208.687 320.378 201.712L318.344 188.054H375.554C376.309 188.054 377.057 187.905 377.755 187.615C378.453 187.325 379.087 186.9 379.621 186.364C380.155 185.828 380.579 185.192 380.868 184.492C381.157 183.792 381.305 183.042 381.305 182.284V79.5166C381.305 78.7589 381.157 78.0086 380.868 77.3085C380.579 76.6085 380.155 75.9724 379.621 75.4366C379.087 74.9009 378.453 74.4759 377.755 74.186C377.057 73.896 376.309 73.7469 375.554 73.747Z" fill="#3F3D56"/>
<path d="M375.801 79.8498H223.242V165.483H375.801V79.8498Z" fill="#F2F2F2"/>
<path d="M299.522 78.1061C300.055 78.1061 300.487 77.6724 300.487 77.1374C300.487 76.6024 300.055 76.1687 299.522 76.1687C298.989 76.1687 298.556 76.6024 298.556 77.1374C298.556 77.6724 298.989 78.1061 299.522 78.1061Z" fill="#F2F2F2"/>
<path d="M299.522 183.888C301.548 183.888 303.191 182.24 303.191 180.207C303.191 178.174 301.548 176.526 299.522 176.526C297.496 176.526 295.853 178.174 295.853 180.207C295.853 182.24 297.496 183.888 299.522 183.888Z" fill="#F2F2F2"/>
<path d="M293.804 219.149V221.087H189.91V219.537L190.053 219.149L192.613 212.174H291.68L293.804 219.149Z" fill="#3F3D56"/>
<path d="M333.786 217.252C333.597 218.064 332.883 218.92 331.268 219.73C325.475 222.636 313.695 218.955 313.695 218.955C313.695 218.955 304.619 217.405 304.619 213.337C304.873 213.162 305.139 213.003 305.414 212.862C307.85 211.569 315.926 208.379 330.245 212.997C331.3 213.33 332.243 213.949 332.967 214.787C333.288 215.104 333.53 215.492 333.672 215.921C333.815 216.349 333.854 216.806 333.786 217.252Z" fill="#3F3D56"/>
<path opacity="0.1" d="M333.786 217.252C326.695 219.978 320.375 220.182 313.888 215.662C311.435 213.842 308.465 212.861 305.414 212.862C307.85 211.569 315.926 208.379 330.245 212.997C331.3 213.33 332.243 213.949 332.967 214.787C333.288 215.104 333.53 215.492 333.672 215.921C333.815 216.349 333.854 216.806 333.786 217.252Z" fill="black"/>
<path d="M324.895 215.662C326.282 215.662 327.406 215.315 327.406 214.887C327.406 214.459 326.282 214.112 324.895 214.112C323.509 214.112 322.385 214.459 322.385 214.887C322.385 215.315 323.509 215.662 324.895 215.662Z" fill="#F2F2F2"/>
<path opacity="0.1" d="M293.804 219.149V221.087H189.91V219.537L190.053 219.149H293.804Z" fill="black"/>
<path d="M57.7668 -0.000225402C56.7124 -0.0870788 55.6566 0.149551 54.7392 0.678309C53.8385 1.29715 53.2708 2.3813 52.6913 3.39016C50.4757 7.29351 47.4762 10.6927 43.8828 13.3724C41.2655 15.296 37.938 17.6945 38.3858 21.2412C38.622 22.4124 39.0533 23.5354 39.6616 24.5628C42.0761 29.4527 48.6649 33.2315 48.0168 38.8113C50.4157 34.7823 47.207 32.79 49.6059 28.761C50.7483 26.8423 52.7328 24.6764 54.4577 25.8814C55.0352 26.2848 55.4144 27.0085 56.0157 27.3625C57.4505 28.2072 58.977 26.5923 60.2471 25.4484C64.6267 21.5041 70.855 22.5374 76.305 23.7664C78.878 24.3466 81.7041 25.1078 83.225 27.5749C85.2248 30.8186 81.3251 34.3219 80.3398 37.9892C80.2593 38.3017 80.2555 38.6291 80.3287 38.9434C80.4018 39.2577 80.5498 39.5495 80.7599 39.7939C80.97 40.0383 81.2359 40.2281 81.535 40.3469C81.8341 40.4657 82.1575 40.5101 82.4774 40.4762C84.1127 40.3143 86.0499 40.1817 86.1467 39.4618C88.2042 39.5352 90.7252 39.3015 91.6067 37.1521C91.8762 36.3017 92.0186 35.416 92.0293 34.5237C92.3529 30.9133 93.8803 27.6194 94.8921 24.1832C95.904 20.7469 96.3439 16.7198 94.6364 13.6731C94.027 12.6595 93.2733 11.7405 92.3992 10.9453C82.7091 1.53731 69.9687 -0.0141904 57.7668 -0.000225402Z" fill="#2F2E41"/>
<path d="M50.1242 45.8592C50.1242 45.8592 52.2317 63.4782 44.5044 64.8878C36.7772 66.2973 51.5292 90.2591 51.5292 90.2591L86.653 94.4877L78.2233 66.2973C78.2233 66.2973 72.6035 64.183 76.1159 50.0878C79.6283 35.9926 50.1242 45.8592 50.1242 45.8592Z" fill="#FFB8B8"/>
<path d="M28.6987 348.554L31.5089 387.316H46.2603L42.046 348.554H28.6987Z" fill="#FFB8B8"/>
<path d="M136.88 275.259L138.987 307.678L155.145 300.63L148.822 273.849L136.88 275.259Z" fill="#FFB8B8"/>
<path d="M18.1616 200.554C18.1616 200.554 18.864 241.43 23.0789 254.821C27.2938 268.211 26.5913 268.916 25.8888 271.03C25.1864 273.144 24.4839 271.735 24.4839 275.259C24.4839 278.783 23.0789 334.459 24.4839 339.392C25.8888 344.325 20.269 352.782 24.4839 353.487C28.6987 354.192 48.3681 353.487 49.0706 349.259C49.773 345.03 43.4508 343.62 46.2607 340.801C49.0706 337.982 53.2854 280.192 53.2854 280.192L63.1201 240.021L81.3845 218.878H120.021L131.963 265.392C131.963 265.392 127.045 278.783 130.558 278.783C134.07 278.783 155.145 283.011 155.145 267.506C155.145 252.002 148.12 206.192 146.715 204.783C145.31 203.373 147.417 198.44 145.31 196.326C143.202 194.211 118.616 179.411 109.484 176.592C100.351 173.773 87.5405 170.418 87.5405 170.418L18.1616 200.554Z" fill="#2F2E41"/>
<path d="M155.145 294.992C155.145 294.992 144.607 291.468 139.69 302.04C134.773 312.611 136.88 315.43 136.88 315.43C136.88 315.43 153.037 321.068 155.847 318.249C157.07 317.023 160.952 316.597 164.947 316.507C171.033 316.37 172.653 307.731 166.905 305.72C166.733 305.66 166.56 305.608 166.384 305.563C160.764 304.154 155.145 294.992 155.145 294.992Z" fill="#2F2E41"/>
<path d="M65.93 57.4878C77.569 57.4878 87.0043 48.0218 87.0043 36.345C87.0043 24.6681 77.569 15.2021 65.93 15.2021C54.2909 15.2021 44.8557 24.6681 44.8557 36.345C44.8557 48.0218 54.2909 57.4878 65.93 57.4878Z" fill="#FFB8B8"/>
<path d="M38.5334 73.6972C38.5334 73.6972 72.9547 80.7449 81.3845 69.4687C89.8142 58.1925 93.3266 101.183 93.3266 101.183L97.5414 146.288L91.2191 170.954C91.2191 170.954 58.2027 197.735 47.6656 199.849C37.1284 201.964 20.9714 203.373 20.9714 203.373C20.9714 203.373 25.8888 125.145 25.8888 123.735C25.8888 122.326 38.5334 73.6972 38.5334 73.6972Z" fill="#FE4400"/>
<path d="M49.0017 60.4797C49.0017 60.4797 41.3433 56.0782 39.2358 60.3068C37.1284 64.5354 17.4591 75.1068 15.3516 75.1068C13.2442 75.1068 19.5665 133.602 16.7566 140.649C13.9467 147.697 0.599616 199.145 8.32686 203.373C16.0541 207.602 10.4343 199.145 18.1615 209.716C25.8888 220.287 63.8225 220.287 65.93 216.059C68.0374 211.83 49.0705 180.116 52.5829 150.516C56.0953 120.916 61.7151 80.0401 56.7978 74.402C51.8804 68.7639 49.0017 60.4797 49.0017 60.4797Z" fill="#2F2E41"/>
<path d="M74.3597 65.2401L75.3382 61.8618C75.3382 61.8618 104.566 71.583 105.971 77.9258C107.376 84.2687 106.674 128.669 101.756 132.192C96.839 135.716 89.8142 141.354 94.7316 149.811C99.6489 158.269 105.269 167.43 109.484 168.135C113.698 168.84 121.426 173.773 119.318 178.707C117.211 183.64 91.9217 174.478 91.9217 174.478C91.9217 174.478 75.0622 161.792 75.7647 142.059C76.4672 122.326 74.3597 65.2401 74.3597 65.2401Z" fill="#2F2E41"/>
<path d="M98.9464 148.402L82.0869 180.116C82.0869 180.116 57.5002 205.487 71.5498 208.306C85.5994 211.126 93.3266 185.049 93.3266 185.049L111.591 158.973L98.9464 148.402Z" fill="#FFB8B8"/>
<path d="M58.7935 5.53207C57.944 5.46893 57.0932 5.63449 56.3289 6.01166C55.6378 6.51801 55.0682 7.17287 54.6618 7.92838C52.7881 10.756 50.3456 13.1592 47.4913 14.9837C45.3607 16.3433 42.652 18.0386 43.0165 20.5453C43.2144 21.3858 43.5666 22.182 44.055 22.8931C46.0273 26.3841 46.8125 30.4247 46.2917 34.4034L52.1501 25.8603C53.0801 24.5042 54.6956 22.9734 56.0997 23.825C56.5698 24.1102 56.8785 24.6217 57.368 24.8719C58.536 25.4689 59.7786 24.3275 60.8125 23.519C64.3777 20.7312 69.4478 21.4615 73.8844 22.3302C75.9789 22.7402 78.2794 23.2782 79.5176 25.022C81.5751 27.9197 79.4266 32.1068 80.6275 35.4544C80.9636 35.2183 81.2491 34.9169 81.467 34.568C81.6849 34.2192 81.8307 33.83 81.8959 33.4235C83.5708 33.4755 85.623 33.3103 86.3406 31.7911C86.5589 31.1957 86.6752 30.5676 86.6846 29.9333C86.948 27.3815 88.1913 25.0535 89.015 22.6247C89.8387 20.196 90.1969 17.3496 88.8068 15.1963C88.2983 14.4667 87.6846 13.8169 86.9857 13.2683C79.0975 6.61878 68.7263 5.5222 58.7935 5.53207Z" fill="#2F2E41"/>
<path d="M98.9464 75.1068L105.491 76.8497C105.491 76.8497 120.723 115.983 117.211 142.764C113.698 169.545 111.591 163.907 111.591 163.907C111.591 163.907 105.971 151.221 93.3266 154.04L98.9464 75.1068Z" fill="#2F2E41"/>
<path d="M29.672 382.193C27.978 384.502 28.3176 387.804 26.8171 390.244C25.5164 392.36 23.0651 393.469 21.4381 395.343C20.919 395.966 20.4562 396.634 20.0552 397.339C18.546 399.875 17.3193 403.126 18.8057 405.675C20.0014 407.727 22.5147 408.528 24.8196 409.075C27.733 409.765 30.76 410.318 33.707 409.79C36.654 409.262 39.5341 407.452 40.5849 404.64C40.7914 403.933 41.0369 403.238 41.3203 402.558C42.9176 399.403 47.9277 399.369 49.5624 396.233C50.7065 394.039 49.6548 391.387 48.6036 389.146L45.3931 382.303C44.3276 380.033 40.0085 381.338 37.7568 380.794C34.8202 380.085 31.7846 379.303 29.672 382.193Z" fill="#2F2E41"/>
<path d="M6.21942 162.497L35.7235 208.307C35.7235 208.307 53.9878 231.564 59.6077 220.992C65.2275 210.421 39.9383 192.802 39.9383 192.802L20.9714 157.564L6.21942 162.497Z" fill="#FFB8B8"/>
<path d="M20.9714 76.5163L15.3516 75.1068C15.3516 75.1068 4.112 78.6306 1.3021 93.4305C-1.50781 108.231 0.599618 167.43 4.112 168.135C7.62439 168.84 21.4596 157.827 23.6742 160.162C25.8888 162.497 18.864 150.516 20.9714 144.173C23.0788 137.83 20.9714 76.5163 20.9714 76.5163Z" fill="#2F2E41"/>
<path d="M285.082 107.975H266.926V112.36H285.082V107.975Z" fill="#FE4400"/>
<path d="M347.957 107.975H341.569V112.36H347.957V107.975Z" fill="#FE4400"/>
<path d="M360.733 107.975H354.345V112.36H360.733V107.975Z" fill="#FE4400"/>
<path d="M334.844 107.975H291.471V112.36H334.844V107.975Z" fill="#FE4400"/>
<path d="M262.219 136.309H244.063V140.695H262.219V136.309Z" fill="#FE4400"/>
<path d="M325.093 136.309H318.705V140.695H325.093V136.309Z" fill="#FE4400"/>
<path d="M337.87 136.309H331.482V140.695H337.87V136.309Z" fill="#FE4400"/>
<path d="M311.981 136.309H268.607V140.695H311.981V136.309Z" fill="#FE4400"/>
<path d="M337.198 117.757H319.041V122.142H337.198V117.757Z" fill="#FE4400"/>
<path d="M361.742 117.757H343.586V122.142H361.742V117.757Z" fill="#FE4400"/>
<path d="M250.451 117.757H244.063V122.142H250.451V117.757Z" fill="#FE4400"/>
<path d="M263.228 117.757H256.839V122.142H263.228V117.757Z" fill="#FE4400"/>
<path d="M312.989 117.757H269.616V122.142H312.989V117.757Z" fill="#FE4400"/>
<path d="M299.54 127.202H281.384V131.587H299.54V127.202Z" fill="#FE4400"/>
<path d="M274.996 127.202H256.839V131.587H274.996V127.202Z" fill="#FE4400"/>
<path d="M250.451 127.202H244.063V131.587H250.451V127.202Z" fill="#FE4400"/>
<path d="M361.742 127.202H355.354V131.587H361.742V127.202Z" fill="#FE4400"/>
<path d="M348.965 127.202H305.592V131.587H348.965V127.202Z" fill="#FE4400"/>
</g>
<defs>
<clipPath id="clip0">
<rect width="434" height="410" fill="white"/>
</clipPath>
</defs>
</svg>
